Coordinates
version=1
nRows=13
nColumns=63
inDegrees=yes

Units are S.I. units (second, meters, Newtons, ...)
If the header above contains a line with 'inDegrees', this indicates whether rotational values are in degrees (yes) or radians (no).

endheader
time	pelvis_tilt	pelvis_list	pelvis_rotation	pelvis_tx	pelvis_ty	pelvis_tz	hip_flexion_r	hip_adduction_r	hip_rotation_r	knee_angle_r	knee_angle_r_beta	ankle_angle_r	subtalar_angle_r	mtp_angle_r	hip_flexion_l	hip_adduction_l	hip_rotation_l	knee_angle_l	knee_angle_l_beta	ankle_angle_l	subtalar_angle_l	mtp_angle_l	L5_S1_Flex_Ext	L5_S1_Lat_Bending	L5_S1_axial_rotation	L4_L5_Flex_Ext	L4_L5_Lat_Bending	L4_L5_axial_rotation	L3_L4_Flex_Ext	L3_L4_Lat_Bending	L3_L4_axial_rotation	L2_L3_Flex_Ext	L2_L3_Lat_Bending	L2_L3_axial_rotation	L1_L2_Flex_Ext	L1_L2_Lat_Bending	L1_L2_axial_rotation	L1_T12_Flex_Ext	L1_T12_Lat_Bending	L1_T12_axial_rotation	Abs_r3	Abs_r2	Abs_r1	Abs_t1	Abs_t2	neck_flexion	neck_bending	neck_rotation	arm_flex_r	arm_add_r	arm_rot_r	elbow_flex_r	pro_sup_r	wrist_flex_r	wrist_dev_r	arm_flex_l	arm_add_l	arm_rot_l	elbow_flex_l	pro_sup_l	wrist_flex_l	wrist_dev_l
2.447368	-4.179920	-0.669751	98.255265	0.102148	0.483165	0.791779	-3.436735	1.936569	-5.936207	2.612238	0.045592	29.799136	12.966797	0.000000	-2.253241	-1.635157	5.511174	3.552624	0.062005	27.569084	-0.202001	0.000000	0.006697	-0.345407	0.311731	0.012438	-0.459391	0.331215	0.011003	-0.839822	0.331215	0.007654	-0.839822	0.272765	0.006219	-0.704354	0.253282	0.003827	-0.535035	0.233799	0.047839	-3.907312	1.733757	0.000000	0.000000	12.594272	0.185731	11.147076	-1.024964	-14.081688	25.576409	81.803381	74.826314	-0.577102	9.742545	14.142057	-5.924920	49.576185	48.171526	77.817719	0.157085	7.215469
2.473684	-4.230343	-0.830910	98.225691	0.100955	0.483016	0.794548	-3.073517	1.743889	-6.072484	2.692987	0.047001	29.818075	13.090917	0.000000	-1.810511	-1.460950	5.347821	3.776333	0.065909	27.578727	-0.193007	0.000000	0.015614	-0.343983	0.285263	0.028996	-0.457498	0.303092	0.025652	-0.836361	0.303092	0.017845	-0.836361	0.249605	0.014499	-0.701451	0.231776	0.008922	-0.532830	0.213947	0.111527	-3.891209	1.586547	0.000000	0.000000	12.916134	0.225539	11.548170	0.999144	-13.512321	32.710923	80.020830	62.730787	-2.525569	9.508988	14.080964	-5.272295	50.339251	48.027224	75.839137	-0.271608	5.868667
2.500000	-4.206773	-1.025321	98.272078	0.099465	0.482696	0.797520	-2.593622	1.591996	-6.412207	2.914367	0.050865	29.908661	13.317115	0.000000	-1.247385	-1.350146	5.071071	4.133329	0.072140	27.685012	0.011051	0.000000	0.023091	-0.331347	0.273024	0.042881	-0.440692	0.290088	0.037935	-0.805638	0.290088	0.026390	-0.805638	0.238896	0.021442	-0.675683	0.221832	0.013194	-0.513257	0.204768	0.164933	-3.748265	1.518480	0.000000	0.000000	13.466363	0.044981	11.660476	2.190118	-13.065239	35.168810	78.825037	54.317356	-5.549649	10.190717	14.168013	-4.686593	51.512436	47.675606	74.105372	-0.847818	4.479907
2.526316	-4.158658	-1.239572	98.353884	0.098017	0.482377	0.800659	-2.022333	1.456239	-6.871445	3.252465	0.056766	30.018948	13.618036	0.000000	-0.599463	-1.284400	4.501881	4.601435	0.080310	27.863621	0.632316	0.000000	0.029772	-0.318052	0.251588	0.055290	-0.423009	0.267312	0.048913	-0.773311	0.267312	0.034027	-0.773311	0.220139	0.027646	-0.648571	0.204415	0.017012	-0.492662	0.188691	0.212660	-3.597863	1.399255	0.000000	0.000000	14.143878	-0.238631	11.560107	3.258354	-12.595695	37.537415	77.302690	45.617847	-9.013084	10.737863	14.271538	-4.246070	52.813974	47.159567	72.337744	-1.515984	3.058822
2.552632	-4.083484	-1.466741	98.534196	0.096514	0.482040	0.803924	-1.373803	1.332485	-7.536723	3.711717	0.064782	30.171028	14.019390	0.000000	0.137202	-1.261673	3.716119	5.194601	0.090663	28.122415	1.653829	0.000000	0.035090	-0.303991	0.216733	0.065166	-0.404308	0.230279	0.057650	-0.739124	0.230279	0.040105	-0.739124	0.189641	0.032585	-0.619899	0.176095	0.020051	-0.470882	0.162550	0.250647	-3.438808	1.205403	0.000000	0.000000	14.928785	-0.619743	11.243214	4.133975	-12.128350	39.647584	75.720280	36.894453	-13.069580	11.441000	14.440155	-3.906570	54.185433	46.483988	71.101577	-2.067963	1.694409
2.578947	-3.983968	-1.706078	98.805767	0.094996	0.481673	0.807216	-0.660660	1.222439	-8.368620	4.278742	0.074678	30.361818	14.482720	0.000000	0.939919	-1.278008	2.767826	5.882915	0.102676	28.441257	2.997967	0.000000	0.040358	-0.290107	0.169366	0.074948	-0.385842	0.179951	0.066303	-0.705366	0.179951	0.046125	-0.705366	0.148195	0.037476	-0.591586	0.137610	0.023060	-0.449376	0.127024	0.288270	-3.281748	0.941961	0.000000	0.000000	15.804510	-1.062813	10.739466	4.805073	-11.692563	41.433600	74.230105	28.425107	-17.383685	12.369629	14.707551	-3.657221	55.654091	45.687001	70.491045	-2.494121	0.446062
2.605263	-3.868583	-1.947442	99.155714	0.093516	0.481286	0.810443	0.091490	1.123037	-9.331384	4.936292	0.086155	30.585783	14.984026	0.000000	1.778979	-1.328755	1.677986	6.641930	0.115924	28.803885	4.637224	0.000000	0.045142	-0.277515	0.113027	0.083834	-0.369094	0.120091	0.074165	-0.674749	0.120091	0.051593	-0.674749	0.098898	0.041919	-0.565908	0.091834	0.025794	-0.429870	0.084770	0.322448	-3.139301	0.628620	0.000000	0.000000	16.753592	-1.543874	10.101851	5.289316	-11.307456	42.838857	72.908389	20.481819	-21.709628	13.608167	15.122685	-3.490513	57.298972	44.819328	70.540618	-2.810592	-0.635493
2.631579	-3.747145	-2.178722	99.579889	0.092097	0.480890	0.813506	0.846343	1.027641	-10.401829	5.655314	0.098704	30.834670	15.505673	0.000000	2.618649	-1.399346	0.526525	7.433001	0.129730	29.183463	6.476608	0.000000	0.049536	-0.267302	0.047926	0.091993	-0.355512	0.050921	0.081382	-0.649919	0.050921	0.056614	-0.649919	0.041935	0.045999	-0.545083	0.038940	0.028305	-0.414051	0.035944	0.353829	-3.023776	0.266548	0.000000	0.000000	17.755392	-2.031463	9.386671	5.637692	-10.974545	43.868999	71.750936	13.348928	-25.870421	15.054852	15.657003	-3.399277	59.032110	43.974933	71.269898	-2.996909	-1.428065
2.657895	-3.610629	-2.401013	100.056443	0.090753	0.480495	0.816382	1.597998	0.943367	-11.566388	6.425063	0.112138	31.092945	16.055933	0.000000	3.451767	-1.499752	-0.716826	8.235333	0.143734	29.577879	8.542213	0.000000	0.055663	-0.258286	-0.016965	0.103373	-0.343521	-0.018025	0.091450	-0.627997	-0.018025	0.063618	-0.627997	-0.014844	0.051689	-0.526697	-0.013784	0.031806	-0.400085	-0.012723	0.397599	-2.921785	-0.094352	0.000000	0.000000	18.788825	-2.537187	8.583884	5.892429	-10.743360	44.619004	70.795221	7.321047	-29.771546	16.579074	16.307149	-3.370032	60.931221	43.200030	72.666464	-3.175501	-1.967323
2.684211	-3.469887	-2.593344	100.544758	0.089473	0.480140	0.818990	2.301552	0.866242	-12.631450	7.210870	0.125853	31.331120	16.449427	0.000000	4.201780	-1.602196	-1.611681	8.955794	0.156308	29.867227	10.206837	0.000000	0.062154	-0.249455	-0.086184	0.115427	-0.331776	-0.091571	0.102113	-0.606526	-0.091571	0.071036	-0.606526	-0.075411	0.057717	-0.508689	-0.070025	0.035515	-0.386406	-0.064638	0.443963	-2.821888	-0.479331	0.000000	0.000000	19.817503	-3.010056	7.875579	6.127915	-10.612293	45.207220	70.011326	2.688836	-33.167661	18.041109	16.885439	-3.386765	62.557447	42.604264	74.753152	-3.076216	-2.141703
2.710526	-3.322503	-2.754181	101.016280	0.088241	0.479848	0.821383	2.957721	0.794942	-13.647329	8.004938	0.139713	31.550490	16.791510	0.000000	4.875674	-1.708059	-2.359654	9.604097	0.167623	30.109273	11.708064	0.000000	0.068425	-0.239379	-0.153770	0.127073	-0.318374	-0.163381	0.112416	-0.582025	-0.163381	0.078203	-0.582025	-0.134549	0.063540	-0.488141	-0.124938	0.039098	-0.370798	-0.115328	0.488756	-2.707899	-0.855224	0.000000	0.000000	20.802577	-3.476238	7.235270	6.364353	-10.574787	45.679615	69.401408	-0.269742	-35.831336	19.483484	17.391280	-3.456427	63.957265	42.190920	77.434333	-2.765557	-2.137604
2.736842	-3.161457	-2.887652	101.451221	0.087053	0.479620	0.823556	3.561897	0.740099	-14.578607	8.778874	0.153220	31.736251	17.074198	0.000000	5.469872	-1.821336	-2.914370	10.159335	0.177314	30.301030	12.960753	0.000000	0.074667	-0.226025	-0.221548	0.138664	-0.300613	-0.235395	0.122671	-0.549557	-0.235395	0.085337	-0.549557	-0.193855	0.069336	-0.460910	-0.180008	0.042665	-0.350112	-0.166161	0.533340	-2.556838	-1.232185	0.000000	0.000000	21.707588	-3.898722	6.744078	6.615263	-10.557664	45.993284	68.895090	-1.301663	-37.494476	20.954486	17.746922	-3.531844	64.845850	41.962619	80.628178	-2.075580	-1.911365
2.763158	-2.989671	-2.992519	101.852917	0.085877	0.479465	0.825483	4.094347	0.704783	-15.401843	9.495523	0.165728	31.870380	17.282020	0.000000	5.969187	-1.932449	-3.160833	10.592693	0.184877	30.425778	13.825823	0.000000	0.080119	-0.208937	-0.286489	0.148790	-0.277886	-0.304394	0.131628	-0.508008	-0.304394	0.091569	-0.508008	-0.250678	0.074399	-0.426063	-0.232772	0.045780	-0.323643	-0.214866	0.572285	-2.363532	-1.593364	0.000000	0.000000	22.493842	-4.262377	6.420884	6.844501	-10.493559	46.040582	68.436977	-0.493580	-38.196765	22.586044	17.974077	-3.571852	65.293051	41.833521	83.621761	-1.063616	-1.534885
